<?xml version="1.0" encoding="UTF-8"?>
<svg id="Calque_2" data-name="Calque 2" xmlns="http://www.w3.org/2000/svg" viewBox="0 0 337.9 90.27">
  <defs>
    <style>
      .cls-1 {
        fill: #fff;
      }
    </style>
  </defs>
  <g id="Calque_1-2" data-name="Calque 1">
    <g>
      <path class="cls-1" d="M294.4,16.19c1.18-1.66,2.88-5.61-.76-4.88-1.5,1.27-7.47,9.33-5.97,10.87l13.84-6.74c.43,1.02-1.07,2-1.06,3.37,0,1.74,1.6,3.76,3.33,4.1,7.61,1.5,25.18-5.99,32.4-9.52,1.01-.49,2.07.48,1.64-1.68-11.08,2.82-21.42,9.36-33.18,9.01-3.34-3.63,3.12-5.54,1.74-9.76l-11.97,5.23Z"/>
      <path d="M227.41,52.12c1.26-.26,21.76-10.18,23.2-11.23l19.84-23.58c-2.16-1.12-4.82,1.97-7.01,1.7-1.38-.17-2.29-1.92-3.7-1.91-1.51.02-6.79,2.89-9.11,3.59-6.22,1.87-10.5,3.53-7.87-5.25-.59-.53-12.45,3.49-13.76,4.57-1.7,1.39-2.28,5.86-4.92,8.55s-9.05,7.06-10.36,1.26c-1.28-5.67,9.25-7.57,10.7-9.91,2.23-3.61-1.2-11.08,5.24-11.97l1.14,1.87c-3.78,1.84-3.13,4.09-2.99,7.86l23.94-7.48c1.81,1.63-9.06,6.93-7.1,9.74,3.21-.5,6.29-1.55,9.33-2.64,5.17-1.85,14.43-7.48,18.7-8.3,8.6-1.64,2.99,6.21.63,9.67-4.38,6.42-10.4,11.67-15.21,17.72-.6.75-1.44.97-1.11,2.25,12.58-3.94,25.21-8.2,38.16-10.86,2.08-.43,12.18-3.25,12.73-.73.38,1.73-8.12,5.3-5.98,1.12-2.57-1.52-37.78,9.39-42.65,11.61-6.75,3.08-9.87,6.41-14.23,12.34h49.4v1.5h-51.27c-9.71,8.66-40.04,36.88-52.46,36.65-2.37-.04-1.98-3.05-1.61-4.63,1.09-4.66,11.99-15.93,15.92-19.27,5.69-4.84,12.44-8.21,18.32-12.75H18.2c-.06-.49.99-1.5,1.12-1.5h208.08ZM274.19,11.71c-3.93-.05-8.17,2.04-10.48,5.22,3.52-.88,7.95-2.5,10.48-5.22ZM215.81,29.66c1.83,2.51,9.21-4.49,8.22-7.48-1.56.9-10.04,4.99-8.22,7.48ZM246.5,44.64l-9.49,3.6-6.98,3.87c7.94.83,12.8.07,16.46-7.47ZM238.26,53.62h-11.6c-2.49,0-21.18,13.8-23.97,16.45-2.39,2.27-13.7,15.13-11.57,17.98,18.41-6.63,33.49-20.82,47.15-34.43Z"/>
      <path d="M51.63,0c18.81-.61,18.79,28.72-2.3,25.84C34.48,23.83,34.91.55,51.63,0ZM48.69,2.89c-10.88,2.24-9.51,21.8,4.31,20.8,14.9-1.07,12.48-24.26-4.31-20.8Z"/>
      <path d="M294.4,16.19l11.97-5.23c1.38,4.22-5.09,6.13-1.74,9.76,11.76.35,22.1-6.19,33.18-9.01.42,2.17-.64,1.19-1.64,1.68-7.21,3.53-24.79,11.02-32.4,9.52-1.73-.34-3.32-2.36-3.33-4.1,0-1.37,1.5-2.36,1.06-3.37l-13.84,6.74c-1.5-1.54,4.47-9.59,5.97-10.87,3.64-.73,1.94,3.22.76,4.88Z"/>
      <path d="M195.6,25.92c-4.79,1.6-4.37-5.91-6.46-6.63l-14.04-.15-2.82,6.66-2.87.12L180.72.57c.5-.31,1.84-.23,2.41,0,2.48,1.03,9.76,21.86,12.47,25.33ZM188.11,16.94l-5.25-13.47c-.85-.67-6.09,12.4-6.73,13.47h11.98Z"/>
      <path d="M103.53,4.21c-3.75-1.51-14.3-3.65-14.29,2.62,0,6.86,16.38,3.55,15.77,12.68-.52,7.74-13.74,8.11-18.32,4.17-.88-.76-1.49-1.98.02-2.26,1.42-.25,3.53,1.72,5.39,2.07,3.63.69,9.63.69,10.01-3.94-.03-7.04-16.25-3.45-15.84-12.71.23-5.24,5.48-6.81,9.89-6.68,2.47.07,8.13.43,7.37,4.04Z"/>
      <path d="M17.45,1.98l-1.16,2.23C12.14,2.02,2.83.92,3.15,7.59c.23,4.74,10.6,3.89,13.97,7.81,3.8,4.42-.27,9.93-5.27,10.54-3.59.44-13.55-.08-11.61-5.25,3.21,3.39,15.4,5.33,15.72-1.19S.55,16.17.19,7.57,11.88-1.04,17.45,1.98Z"/>
      <polygon points="129.73 .47 129.73 11.7 146.2 11.7 146.2 .47 148.44 .47 148.44 25.92 146.2 25.92 146.2 15.07 145.07 13.95 129.73 13.95 129.73 25.92 127.48 25.92 127.48 .47 129.73 .47"/>
      <path class="cls-1" d="M246.5,44.64c-3.67,7.54-8.52,8.3-16.46,7.47l6.98-3.87,9.49-3.6Z"/>
    </g>
  </g>
</svg>